<svg xmlns="http://www.w3.org/2000/svg" viewBox="0 0 100 100">
  <defs>
    <!-- Gradient for the cup -->
    <linearGradient id="cupGradient" x1="0%" y1="0%" x2="100%" y2="100%">
      <stop offset="0%" style="stop-color:#FFD700;stop-opacity:1" />
      <stop offset="50%" style="stop-color:#FFA500;stop-opacity:1" />
      <stop offset="100%" style="stop-color:#FF8C00;stop-opacity:1" />
    </linearGradient>
    
    <!-- Gradient for the base -->
    <linearGradient id="baseGradient" x1="0%" y1="0%" x2="100%" y2="100%">
      <stop offset="0%" style="stop-color:#8B4513;stop-opacity:1" />
      <stop offset="100%" style="stop-color:#654321;stop-opacity:1" />
    </linearGradient>
  </defs>
  
  <!-- Trophy base -->
  <rect x="30" y="75" width="40" height="15" rx="2" fill="url(#baseGradient)" />
  
  <!-- Trophy stem -->
  <rect x="47" y="65" width="6" height="15" fill="url(#baseGradient)" />
  
  <!-- Trophy cup -->
  <path d="M25 35 L25 55 Q25 65 35 65 L65 65 Q75 65 75 55 L75 35 Z" fill="url(#cupGradient)" stroke="#DAA520" stroke-width="1"/>
  
  <!-- Trophy handles -->
  <ellipse cx="20" cy="45" rx="8" ry="12" fill="none" stroke="url(#cupGradient)" stroke-width="3"/>
  <ellipse cx="80" cy="45" rx="8" ry="12" fill="none" stroke="url(#cupGradient)" stroke-width="3"/>
  
  <!-- Trophy rim -->
  <ellipse cx="50" cy="35" rx="25" ry="4" fill="#FFD700" stroke="#DAA520" stroke-width="1"/>
  
  <!-- Crown/decoration on top -->
  <polygon points="40,20 45,30 50,15 55,30 60,20 58,35 42,35" fill="#FFD700" stroke="#DAA520" stroke-width="1"/>
  
  <!-- Shine effect -->
  <ellipse cx="42" cy="45" rx="3" ry="8" fill="#FFFF99" opacity="0.6"/>
</svg>